# xmcd
#
# Track frame offsets:
#       150
#       6514
#       21561
#       40460
#       58197
#       82707
#       103011
#       103776
#       119378
#       141000
#       159262
#       170947
#       193396
#       194355
#       220558
#       241459
#       258726
#       277801
#       280511
#       293099
#       313567
#
# Disc length: 4396 seconds
#
# Revision: 1
# Processed by: cddbd v1.5.2PL0 Copyright (c) Steve Scherf et al.
# Submitted via: FreeDbEdit v0.1
#
DISCID=39112a15
DTITLE=The Notorious B.I.G. - Duets - The Final
DYEAR=2005
DGENRE=Rap
TTITLE0=Live in Jamaica (Intro)
TTITLE1=The Most Shady Ft Diddy, Eminem and Obie Trice
TTITLE2=Spit Your Game Ft Twista and Bone Thugs'n'harmony
TTITLE3=Whatchu Want Ft Jay-Z
TTITLE4=Get Your Grind on Ft Big Pun, Fat Joe and Freeway
TTITLE5=Living the Life Ft Snoop Dogg, Ludacris and Faith Evans
TTITLE6=The Greatest Rapper (Interlude)
TTITLE7=1970 Somethin' Ft the Game and Faith Evans
TTITLE8=Nasty Girl Ft Diddy, Nelly, Jagged Edge and Avery Storm
TTITLE9=Living in Pain Ft 2pac, Mary J Blige and Nas
TTITLE10=I'm Wit' Whateva Ft Lil Wayne, Juelz and Santana
TTITLE11=Beef Ft Mobb Deep
TTITLE12=My Dad (Interlude)
TTITLE13=Hustler's Story Ft Scarface, Akon and Big Gee
TTITLE14=Breakin' Old Habits Ft T.I. and Slim Thug
TTITLE15=Ultimate Rush Ft Missy Elliot
TTITLE16=Mi Casa Ft R Kelly and Charlie Wilson
TTITLE17=Little Homie (Interlude)
TTITLE18=Hold Your Head Ft Bob Marley
TTITLE19=Just a Memory Ft the Clipse
TTITLE20=Wake Up Now Ft Korn
EXTD=
EXTT0=
EXTT1=
EXTT2=
EXTT3=
EXTT4=
EXTT5=
EXTT6=
EXTT7=
EXTT8=
EXTT9=
EXTT10=
EXTT11=
EXTT12=
EXTT13=
EXTT14=
EXTT15=
EXTT16=
EXTT17=
EXTT18=
EXTT19=
EXTT20=
PLAYORDER=
